<svg xmlns="http://www.w3.org/2000/svg" width="519" height="531" viewBox="0 0 519 531">
  <metadata><?xpacket begin="﻿" id="W5M0MpCehiHzreSzNTczkc9d"?>
<x:xmpmeta xmlns:x="adobe:ns:meta/" x:xmptk="Adobe XMP Core 5.6-c142 79.160924, 2017/07/13-01:06:39        ">
   <rdf:RDF xmlns:rdf="http://www.w3.org/1999/02/22-rdf-syntax-ns#">
      <rdf:Description rdf:about=""
            xmlns:xmp="http://ns.adobe.com/xap/1.0/">
         <xmp:CreatorTool>Adobe Photoshop CC (Windows)</xmp:CreatorTool>
      </rdf:Description>
   </rdf:RDF>
</x:xmpmeta>
                                                                                                    
                                                                                                    
                                                                                                    
                                                                                                    
                                                                                                    
                                                                                                    
                                                                                                    
                                                                                                    
                                                                                                    
                                                                                                    
                                                                                                    
                                                                                                    
                                                                                                    
                                                                                                    
                                                                                                    
                                                                                                    
                                                                                                    
                                                                                                    
                                                                                                    
                                                                                                    
                           
<?xpacket end="w"?></metadata>
<defs>
    <style>
      .cls-1 {
        fill: #410021;
        fill-rule: evenodd;
      }

      .cls-2 {
        font-size: 250px;
        fill: #fff;
        font-family: Garamond;
      }
    </style>
  </defs>
  <path class="cls-1" d="M519,368.863l-63.861,81.068-26.356-13.173c-15.967,18.241-34.775,33.119-56.765,43.574-19.863,9.443-39.168,12.46-56.766,19.254A227.715,227.715,0,0,0,259.5,531a227.715,227.715,0,0,0-55.752-31.414c-17.6-6.794-36.9-9.811-56.766-19.254-21.99-10.455-40.8-25.333-56.765-43.574L63.861,449.931,0,368.863c81.694-69.187,112.92-158.7,91.23-230.033-7.8-25.638-22.352-48.769-42.574-68.908L106.436,0a158.141,158.141,0,0,1,45.615,12.16c16.6,7.312,26.93,15.177,44.6,19.254a111.066,111.066,0,0,0,37.506,2.027L259.5,62.828l25.342-29.387a111.066,111.066,0,0,0,37.506-2.027c17.671-4.077,28.006-11.942,44.6-19.254A158.141,158.141,0,0,1,412.564,0l57.78,69.922c-20.222,20.14-34.779,43.27-42.574,68.908C406.08,210.162,437.306,299.676,519,368.863Z"/>
  <text id="H" class="cls-2" x="165" y="343">H</text>
</svg>
